<?xml version="1.0" encoding="utf-8"?>
<!-- Generator: Adobe Illustrator 24.2.0, SVG Export Plug-In . SVG Version: 6.00 Build 0)  -->
<svg version="1.1" id="Layer_1" xmlns="http://www.w3.org/2000/svg" xmlns:xlink="http://www.w3.org/1999/xlink" x="0px" y="0px"
	 viewBox="0 0 720 720" style="enable-background:new 0 0 720 720;" xml:space="preserve">
<style type="text/css">
	.st0{fill:#FFFFFF;}
</style>
<g id="Layer_2_1_">
	<rect id="rect6" width="720" height="720"/>
</g>
<g id="Layer_3">
	<g>
		<path class="st0" d="M235,479.8h-25.7V279.6h-19.7l45.5-45.5V479.8z"/>
		<path class="st0" d="M298.2,479.8h-25.7v-25.7h25.7V479.8z"/>
		<path class="st0" d="M410.8,444.7c0,12.3-3.9,22.2-11.7,29.8c-7.8,7.6-17.9,11.4-30.4,11.4c-12.7,0-22.9-3.8-30.8-11.4
			s-11.7-17.5-11.7-29.8V279.6c0-11.8,4-21.6,12-29.4c8-7.8,18.1-11.7,30.4-11.7c12.3,0,22.3,3.9,30.3,11.7
			c7.9,7.8,11.9,17.6,11.9,29.4V444.7z M385.1,438.1V286c0-6.2-0.7-10.7-2-13.4c-2.7-5.3-7.5-8-14.4-8c-11.2,0-16.7,7.1-16.7,21.4
			v152.1c0,6.5,0.7,11,2,13.7c2.7,5.4,7.6,8,14.7,8C379.6,459.8,385.1,452.5,385.1,438.1L385.1,438.1z"/>
		<path class="st0" d="M465.3,479.8h-25.7v-25.7h25.7L465.3,479.8z"/>
		<path class="st0" d="M530.5,479.8h-25.7V279.6H485l45.5-45.5V479.8z"/>
	</g>
</g>
</svg>
